<svg xmlns="http://www.w3.org/2000/svg" width="512" height="512" viewBox="0 0 512 512">
  <title>mangarr</title>
  <defs>
    <radialGradient id="halo" cx="50%" cy="50%" r="55%">
      <stop offset="0%" stop-color="#a5b4fc" stop-opacity="0.18"/>
      <stop offset="60%" stop-color="#a5b4fc" stop-opacity="0.04"/>
      <stop offset="100%" stop-color="#a5b4fc" stop-opacity="0"/>
    </radialGradient>
  </defs>
  <rect width="512" height="512" fill="#050507"/>
  <circle cx="256" cy="256" r="220" fill="url(#halo)"/>
  <g fill="none" stroke="#c7d2fe" stroke-opacity="0.9" stroke-width="4" stroke-linecap="round">
    <path d="M120 360 L120 152"/>
    <path d="M120 152 L256 280"/>
    <path d="M256 280 L392 152"/>
    <path d="M392 152 L392 360"/>
    <path d="M192 360 L192 232"/>
    <path d="M320 360 L320 232"/>
  </g>
  <g fill="#ffffff">
    <circle cx="120" cy="152" r="6"/>
    <circle cx="256" cy="280" r="7"/>
    <circle cx="392" cy="152" r="6"/>
    <circle cx="120" cy="360" r="5"/>
    <circle cx="392" cy="360" r="5"/>
  </g>
  <g fill="#ffffff" fill-opacity="0.85">
    <circle cx="160" cy="120" r="1.5"/>
    <circle cx="360" cy="130" r="1.2"/>
    <circle cx="420" cy="240" r="1.4"/>
    <circle cx="100" cy="270" r="1.2"/>
    <circle cx="300" cy="400" r="1.3"/>
    <circle cx="200" cy="420" r="1.1"/>
  </g>
</svg>
